<?xml version="1.0" encoding="iso-8859-1"?>
<!-- Uploaded to: SVG Repo, www.svgrepo.com, Generator: SVG Repo Mixer Tools -->
<!DOCTYPE svg PUBLIC "-//W3C//DTD SVG 1.1//EN" "http://www.w3.org/Graphics/SVG/1.1/DTD/svg11.dtd">
<svg width="32" height="32" viewBox="0 0 32 32" fill="none" xmlns="http://www.w3.org/2000/svg">
  <rect x="4" y="8" width="24" height="16" rx="2" stroke="currentColor" stroke-width="2" stroke-linecap="round" stroke-linejoin="round"/>
  <path d="M12 20L16 16L20 20" stroke="currentColor" stroke-width="2" stroke-linecap="round" stroke-linejoin="round"/>
  <path d="M16 16V24" stroke="currentColor" stroke-width="2" stroke-linecap="round" stroke-linejoin="round"/>
  <path d="M10 14C10 13.4477 9.55228 13 9 13C8.44772 13 8 13.4477 8 14C8 14.5523 8.44772 15 9 15C9.55228 15 10 14.5523 10 14Z" fill="currentColor"/>
  <path d="M24 14C24 13.4477 23.5523 13 23 13C22.4477 13 22 13.4477 22 14C22 14.5523 22.4477 15 23 15C23.5523 15 24 14.5523 24 14Z" fill="currentColor"/>
</svg>